<?xml version="1.0" encoding="UTF-8"?>
<svg version="1.1" viewBox="0 0 2048 755" width="1280" height="1280" xmlns="http://www.w3.org/2000/svg">
<path transform="translate(0)" d="m0 0h2048v755h-2048z"/>
<path transform="translate(1134,14)" d="m0 0 40 1 9 10 1 2-1 11 2 5 5 3 1 19 7 2 1 4-1 4v10l8 6v16l7 5-1 18 6 2 2 2v17l6 3 2 3-1 13 1 3 6 4 1 6-1 8 3 5 4 2 1 18 7 5 1 16 6 5 1 2v14l6 7 1 16 1 2 4 1 3-16 6-7 1-15 5-6 1-7v-9l2-3 5-2 1-13 2-5 3-2 2-6 1-13 4-4 2-5v-8l3-5 3-4 2-15 5-7 2-12 4-6 2-5 1-13 5-6 1-2 2-14 5-5 3-17 4-6 2-13 6-8 1-10h47l2 1v364l-4 1h-45l-1-3v-201l-2-5-2 2-4 17-4 8-1 10-2 9-5 3-1 4-1 13-5 7-1 4v9l-2 5-5 5v16l-5 3-3 2v16l-6 5-1 6v11l-6 6-1 20-6 4-2 13-5 8-3 3h-33l-9-10-1-8v-9l-1-2-5-2-1-5v-8l-2-7-4-5-2-17-5-5-3-19-4-5-4-19-3-3-2-12-1-7-5-6-1-14-1-4-5-4-3-18-4-3-1-4-1-15-5-1-1 1-1 210-1 1h-42l-1-1v-234l1-131z" fill="#D3D892"/>
<path transform="translate(160,154)" d="m0 0h86l1 5-1 391h137l1 1v78l-2 1h-222l-1-8v-349z" fill="#D3D892"/>
<path transform="translate(1755,14)" d="m0 0h42l6 5 6 10 4 8 8 13 9 15 3 6 7 11 7 12 4 6 4 9 6 9 9 15 3 4 3 7 6 10 8 13 5 8 5 9 12 20 5 8 4 8 8 14 9 14 14 25 7 11 1-12v-75l1-182h43v365l-1 1h-48l-3-11-6-8-10-17-4-6-3-8-4-5-11-18-4-6-3-8-4-5-3-8-7-9-8-15-5-8-13-22-8-13-3-7-7-10-13-23-5-9-9-15-16-28-4-4-1 60v202l-2 1h-46l-1-1-1-71v-259l1-34z" fill="#D3D892"/>
<path transform="translate(1548,14)" d="m0 0h19l44 1 1 1v11l2 7 6 5v17l2 4 4 3 1 22 7 5v17l3 6 4 4 1 21 5 4 1 2 1 22 6 4 1 19 4 6 3 4v19l6 3 2 6v17l6 6 1 19 6 6 1 18 2 6 4 4 1 5 1 18 6 5v16l2 5 4 3 1 4 1 20-1 1-8 1h-41l-2-6-2-7-4-2-1-2v-14l-2-7-4-4-1-4-1-17-1-4-4-2-1-5v-15l-2-5-5-6-1-4-93 1-2 17-3 4h-2l-1 22-1 3-4 2-1 2-2 25-4 3h-2l-1 24-2 1h-49l-6-1 2-4 4-4 1-19 5-5 2-9 1-15 2-3h2l2-10v-15l6-4 1-8 1-15 2-4 3-3 1-5 1-16 3-5h2l2-9v-14l3-3h2l2-10v-15l5-5 2-8 1-15 2-4 3-3 2-18 1-5 4-4 1-2 2-20 4-7 2-11 1-12 5-6 1-5 1-14 4-5 2-10 1-16z" fill="#D3D892"/>
<path transform="translate(13,16)" d="m0 0h255l-1 5-4 5-2 9-1 1h-231v689l374 1 33 1 79 1v-492l1-199h-86l-16-1-1-3 1-16 1-1 121 1v193l-1 77v140l-1 65-1 158-1 97h-524l-1-1v-170l1-40 1-140 1-94 1-169 1-97z" fill="#D3D892"/>
<path transform="translate(1104,440)" d="m0 0h29v300l-2 5-3 2h-95l-2-5-11-2-15-8-16-16-8-13-1-12v-40l1-86 8-13 9-10 10-9 9-5 17-4 8-3 8-1h14l12 2 26 9 1-21z" fill="#D3D892"/>
<path transform="translate(894,15)" d="m0 0h171l1 1v48l-2 1h-123v103l76 1-1 16-3 5-2 1-1 4-1 16-2 1-66 1v124l122 1v42l-27 1h-142l-1-1v-278z" fill="#D3D892"/>
<path transform="translate(297,154)" d="m0 0h75l5 1v202l-1 159-1 1-54 1h-24l-1-1v-362z" fill="#D3D892"/>
<path transform="translate(1957,520)" d="m0 0h14l14 2 21 7 13 9 10 11 4 8 3 11 4 4v80l-25 3-15 2-1 1-14 1-67 1v31l4 11 4 6 4 5 8 4h49l7-5 12-3 8-7 4 2 7 10 2 9v6l-3 3-9 4-4 3-15 3-3 4-5 1h-60l-4-5-11-3-12-11-7-10-3-6-2-2-1-5v-134l6-8 1-8 7-9 7-7 11-7 16-7 12-4z" fill="#D3D892"/>
<path transform="translate(669,15)" d="m0 0h47l1 1 1 321h24l113 1 1 1v40l-1 1-32 1h-155l-1-9v-203l1-152z" fill="#D3D892"/>
<path transform="translate(1165,526)" d="m0 0 33 1 1 165 3 5 12 12 10 7 3 1h36l8-4 11-9 8-10 2-7 1-161 29 1v213l-2 1h-26l-3-9-5 3-4 5-10 1-3 6-54 1-3-5v-2l-10-1-6-4-10-5-8-10-4-10-4-3-1-5-1-20-3-6-1-32v-118z" fill="#D3D892"/>
<path transform="translate(1050,549)" d="m0 0h9l10 2 8 4 16 2 9 6 2 3v152h-61l-9-3-11-7-11-12-3-5v-109l9-17 8-7 6-2 8-1 6-5z"/>
<path transform="translate(832,520)" d="m0 0h15l12 2 24 8 10 8 11 11 8 14 2 2v175l-2 1h-25l-1-1-1-157-8-16-5-5-10-5-15-6-5-1h-18l-7 2-7 4-13 4-5 4-1 175-1 1-17 1h-11l-1-1v-213l2-1 25 1v7l8-1 7-5 12-3 10-4z" fill="#D3D892"/>
<path transform="translate(1419,520)" d="m0 0h26l14 1 8 5 13 3 2 5-2 12-9 11-4 1-5-2-5-5-9-1h-26l-7 2-14 9-6 6-1 8v11l4 8 10 8 24 12 12 3 10 5 9 1 7 5 9 4 13 10 8 8 6 9 3 3 1 3v43l-5 6-2 7-9 10-8 8-10 2-4 6h-70l-3-5-8-1-6-5-7-4-9-10-10-16-1-3v-13l1-1 24-1 5 5 9 15 10 4 4 5h45l16-8 7-11 2-6v-11l-4-8-11-12-10-7-10-3-6-4-11-2-5-1-4-4-6-2-10-2-8-5-7-3-15-14-8-9-1-2-2-21v-9l3-15 6-11 9-10 9-8 9-3 11-5z" fill="#D3D892"/>
<path transform="translate(1547,440)" d="m0 0h28l1 1v86h44l-1 13-3 7-5 9-21 1h-14v145l6 7 3 5 15 9 5 5-1 4-6 4-1 10-4 2-12-1-16-10-10-8-2-9-6-4-1-9v-263z" fill="#D3D892"/>
<path transform="translate(1732,520)" d="m0 0h13l12 3 11 4 1 4-3 2-1 4-1 19-2 2-12-7-5-1h-26l-8 6-9 3-9 6-1 59-1 116-3 1h-30l-1-6v-208l3-1 29 1v7h6l7-6 12-2 11-5z" fill="#D3D892"/>
<path transform="translate(664,526)" d="m0 0 33 1v148l-1 64-1 1h-31l-1-1v-212z" fill="#D3D892"/>
<path transform="translate(1804,526)" d="m0 0 33 1v208l-1 5-2 1h-30l-1-158v-56z" fill="#D3D892"/>
<path transform="translate(320)" d="m0 0h39l5 5 10 9 10 19 1 4v23l-7 11-14 14-13 8-7 2h-11l-16-7-10-9-8-9-9-19v-8l4-10 6-11 11-12 7-6z" fill="#0663FA"/>
<path transform="translate(1958,549)" d="m0 0h10l11 1 6 5 11 3 8 9 3 11 4 5 1 15v19l-2 10-10 2-25 1h-58v-49l5-7 3-8 8-8 5-2h7l2-5 1-1z"/>
<path transform="translate(1578,97)" d="m0 0 3 1 3 13 2 8 4 4 2 21 1 2 3 1 1 2 2 22 5 4 2 13v8l5 3 1 3 2 19 2 5-18 1h-47l-5-2 1-14 3-5 3-3 1-20 5-3 1-5 1-17 3-6h2l2-8v-16l5-5 2-3 1-17z"/>
<path transform="translate(1819,431)" d="m0 0 5 1 11 9 2 2 1 10-2 7-5 5-4 3-5 1h-7l-7-3-7-8-1-6 4-6 7-7 5-6z" fill="#D3D892"/>
<path transform="translate(678,432)" d="m0 0 6 1 11 8 3 9-2 9-5 6-5 3-9 1-9-3-7-8-1-6 3-5 12-13z" fill="#D3D892"/>
</svg>
