<?xml version="1.0" encoding="UTF-8"?>
<svg version="1.1" viewBox="0 0 2048 755" width="1280" height="1280" xmlns="http://www.w3.org/2000/svg">
<path transform="translate(0)" d="m0 0h2048v755h-2048z" fill="#FDFCFC"/>
<path transform="translate(1135,14)" d="m0 0 39 1 10 10 1 13 2 5 3 4 4 18 4 4 1 13 3 6 4 4 1 14 6 8 1 11 3 7 2 2 3 17 5 5 1 6 1 10 5 6 2 15 5 8 4 15 5 10 2 10 4 8 3 16 4 10 3 13 2 1 2-5 2-12 4-6 3-13 4-10 2-13 6-9 3-13 4-8 2-11 2-5 4-8 2-10 4-9 6-19 5-15 4-7 3-15 3-5 4-16 3-4 5-19 4-8 2-12 5-6 2-11 2-1 45 1 1 262v104h-48l-1-50v-152l-1-7h-2l-4 18-6 15-1 11-5 8-3 15-3 5-2 7-2 10-4 8v11l-3 5-5 5-3 16-3 4-3 16-5 10-1 12-3 7-4 6-2 11-5 7-7 3h-19l-11-2-8-9-1-3-1-13-6-8-2-15-5-9-2-14-4-5-5-21-3-5-4-17-4-8-2-13-3-6-2-5-2-15-4-3-3-17-5-9-2-14-1-2h-4v110l-1 102h-43l-1-12v-41l1-313z" fill="#2D2972"/>
<path transform="translate(174,153)" d="m0 0h36l36 1v350l1 45 137 1v80h-224v-476z" fill="#2D2972"/>
<path transform="translate(1783,14)" d="m0 0h15l4 4 6 8 6 12 9 15 8 14 8 13 11 18 6 12 6 9 13 22 13 23 7 11 9 16 12 19 13 24 9 14 5 9 13 23 3 3 1-13v-79l1-176h42l1 280v85l-1 1h-47l-3-6-3-7-9-14-10-16-5-10-13-21-3-4-8-16-8-14-14-22-6-11-13-22-7-13-10-16-4-6-3-5-6-12-12-20-4-6-5-10-6-11-2-1-1 73-1 190h-49v-365l2-1z" fill="#2D2972"/>
<path transform="translate(1560,14)" d="m0 0 52 1 1 3v8l1 7 6 6v11l3 10 3 4 1 9 2 11 3 5 2 5 2 14 2 8h2l3 17v5l5 6 2 21 4 4 4 21 5 10 1 17 6 5 1 5 1 17 5 7 2 16 3 6 3 7 1 13 3 8 3 3v7l1 9 1 5 5 6 2 20 4 5 2 15v9l-1 1h-49l-2-3-2-9-5-5-1-5v-10l-3-7-3-5-1-15-3-9-2-2-2-10-1-13-6-7v-3h-87l-5-1-2 14-4 10-2 7-1 13-4 5-2 9-2 15-4 8-3 22-1 1h-49l-8-1 1-3 4-2 2-8v-13l5-5 2-10 2-16 3-4 2-8 1-15 5-4 1-3 2-21 3-3 3-15 2-13 3-2 2-7 1-14 4-5 3-15v-9l4-5 3-14 2-11 3-6 4-22 3-3 2-8 1-11 2-7 3-7 3-21 4-2 2-16 2-9 4-4 1-15 1-9z" fill="#2D2972"/>
<path transform="translate(15,16)" d="m0 0h253v3l-4 6-3 11-1 1h-231v688h335l72 1 2 1h76l1-682v-8h-98l-3-1-1-6 1-12 1-1h120l1 14v190l-1 70-1 386-1 70-11 1h-75l-439-1v-199l2-407 2-124z" fill="#2D2972"/>
<path transform="translate(1104,440)" d="m0 0h29l1 71v212l-1 18-3 5-3 1-16 1h-30l-48-1-2-4-15-4-11-7-10-9-8-9-6-12-1-5v-118l1-15 8-13 18-18 8-5 17-4 9-3 7-1h20l15 4 15 5 5 2z" fill="#2D2972"/>
<path transform="translate(894,15)" d="m0 0h172v49l-6 2h-120l1 102 76 1v9l-2 9-4 8-2 15-1 2-6 1h-62l1 75v49h121l1 1v42l-1 1-118 1h-50l-1-18v-348z" fill="#2D2972"/>
<path transform="translate(305,153)" d="m0 0h67l5 1v74l-1 290h-80v-364z" fill="#2D2972"/>
<path transform="translate(1955,520)" d="m0 0h21l16 4 16 6 11 8 9 10 7 14 5 13 1 11v22l-1 44-21 3-29 4-38 1h-34v30l3 9 6 11 8 6 3 1h36l15-1 4-4 14-4 7-5 4 1 8 11 1 15-8 5-11 5-14 3-1 3-3 1-17 1h-21l-24-1-4-4-11-3-16-16-9-16v-139l5-4 2-10 4-6 6-7 11-8 14-7 12-4 4-2z" fill="#2D2972"/>
<path transform="translate(668,15)" d="m0 0h48l1 1 1 320 1 1h136l1 1v42l-1 1-107 1h-79l-1-1z" fill="#2D2972"/>
<path transform="translate(415,17)" d="m0 0h120l1 14v190l-1 70-1 386-1 70-89-1-7-2v-1l8-1h38l9-1v-2l-44-1-14-1-2-4 4-3 1-3h77l1-682v-8h-98l-3-1-1-6 1-12z" fill="#2D2972"/>
<path transform="translate(1163,527)" d="m0 0h34l1 11 1 154 7 9 9 9 9 6 4 1h33l8-3 11-9 10-11 1-3 1-24v-111l1-29h29v214h-28l-2-8-5 2-5 5-10 3-2 4-54 1-3-3v-2l-13-3-15-10-6-7-7-13-3-6-3-24-2-2-1-4z" fill="#2D2972"/>
<path transform="translate(832,520)" d="m0 0h17l32 8 9 7 14 14 5 8 5 9 1 1v173l-1 1h-27l-1-1-1-156-3-6-3-4-3-9-9-6-12-4-4-3-4-1h-26l-7 3-4 3-9 2-7 4-2 5-1 172-1 1h-29v-214h27l2 6 6-1 10-5 18-6z" fill="#2D2972"/>
<path transform="translate(1048,550)" d="m0 0h17l7 2 5 4 14 1 8 4 4 3 1 8v144l-1 2h-60l-7-2-4-3-6-3-7-6-9-11-1-12v-88l1-12 8-14 7-8 4-2 12-1 2-4z" fill="#FDFCFC"/>
<path transform="translate(1415,520)" d="m0 0h33l13 2 6 3 13 3 2 3-1 13-4 7-8 7-6-1-4-4v-2h-40l-12 6-9 7-3 5v20l4 6 8 7 13 6 17 7 8 2 11 5h7l5 5 7 3 5 2 7 6 11 9 10 14 2 4 1 8v24l-1 10-8 17-10 10-9 6-8 4-4 3-12 1h-28l-29-1-4-4-9-3-15-11-8-11-7-12-2-7v-8l1-2 27-1 5 8 7 12 10 3 2 5 3 1h43l7-3 10-6 7-11 1-3v-15l-4-6-9-10-8-7-6-3-8-2-9-5-5-1h-6l-1-3-6-2-13-3-9-5-8-4-20-20-4-9-2-15v-8l4-18 7-14 9-9 11-8 13-4 2-2z" fill="#2D2972"/>
<path transform="translate(1546,440)" d="m0 0h29l1 3v84h45l-2 16-5 9-4 5-33 1-1 11v84l1 47 1 3 5 5 2 7 10 4 10 9v3l-5 4-3 11-5 2-12-1-9-6-10-6-7-8-3-8-5-5z" fill="#2D2972"/>
<path transform="translate(1733,520)" d="m0 0h9l17 3 10 4v4l-3 6-2 19-2 2-7-3-3-3-3-1h-32l-6 6-8 2-9 7-1 1-1 43-1 131h-33l-1-1v-213h31l2 7 6-2 10-5 20-6z" fill="#2D2972"/>
<path transform="translate(29,726)" d="m0 0h407l1 5-4 2 1 3 14 1 39 1 5 1v2l-10 2h-40l-2 1 4 1 88 1v1l-10 1h-75l-379-1v-1l55-1 1-1-16-2-10-2-8-2 1-2h4v-3l-5 1h-13l-9-3h-6v-2h-9l-4-1-20-1z" fill="#1F1769"/>
<path transform="translate(1803,527)" d="m0 0h34v213l-1 1h-29l-4-1z" fill="#2D2972"/>
<path transform="translate(663,527)" d="m0 0h33l1 1v39l-1 174h-33z" fill="#2E2A73"/>
<path transform="translate(321)" d="m0 0h35l11 8 7 7 10 18 1 4 1 20-3 8-11 13-9 8-12 7-9 3h-7l-10-4-11-6-11-10-5-7-5-12-3-6v-9l5-12 5-9 9-10 8-7z" fill="#FE9B19"/>
<path transform="translate(1950,550)" d="m0 0h28l5 3 1 2 9 2 6 4 5 8 3 9 4 7v38l-1 3-7 2-42 2h-43l-1-1v-46l6-12 7-9 5-4 4-2h6l2-4z" fill="#FDFCFC"/>
<path transform="translate(1578,98)" d="m0 0h2l4 13 5 15 3 17 3 5 2 7 1 12 6 12 2 16 5 6 2 16 2 8-2 1h-65l-1-1 1-14 3-5 2-3 2-17 4-8 2-9 1-11 5-10 2-11v-8l4-6 3-2v-19z" fill="#FDFDFD"/>
<path transform="translate(27,37)" d="m0 0h1v686h-1l-2-24-1-32v-14l-1-21v-102l-1-31v-27l1-75v-57l-1-18-3-26-1-18v-21l1-83 2-54 2-20 1-33 2-25z" fill="#21196A"/>
<path transform="translate(894,15)" d="m0 0h122l49 1v8l-2-4-7-1h-140l-13 4h-3v2h-2v2l-2 2v24l1 90v144l1 24v35l1 23-2 10 2 2h-5l-1-17v-348z" fill="#1F1769"/>
<path transform="translate(174,153)" d="m0 0h36l36 1v126l-1 265-2-2-2-12-2-35v-10l1-13v-25l1-70v-61l1-56 1-76v-18l-3-9-52-2h-14l-11 2-1 12h-1v-16z" fill="#1F1769"/>
<path transform="translate(669,15)" d="m0 0h47v289h-1l-1-19v-260l-8-5-4-1h-16l-7 2-5 4-1 3-1 19v204l-1 79v34l-1 16h-1z" fill="#1F1769"/>
<path transform="translate(375,189)" d="m0 0h1v328l-2-1-4-8v-10l1-10-1-28v-40l1-30 1-36v-109z" fill="#20186A"/>
<path transform="translate(1961,15)" d="m0 0h42l1 280v85l-3-1v-30l-2-317-3-10-6-3-12-1-13 2-1 22v20l-3-1z" fill="#20186A"/>
<path transform="translate(1818,432)" d="m0 0 7 1 8 6 5 6v10l-4 8-6 5-4 1h-11l-5-3-7-9-1-5 4-6 7-7 4-5z" fill="#2D2972"/>
<path transform="translate(679,432)" d="m0 0 8 2 9 8 2 6-1 9-4 6-6 5-3 1h-11l-5-3-6-7-1-2v-7l8-10 8-7z" fill="#2D2972"/>
<path transform="translate(161,190)" d="m0 0h1l1 28 1 74v316l-1 13 2 1v5l2 2-6 1z" fill="#1F1769"/>
<path transform="translate(894,15)" d="m0 0h122l49 1v8l-2-4-7-1h-140l-13 4h-3v2h-2v2l-3 2-1 335h-1v-348z" fill="#251E6D"/>
<path transform="translate(291,550)" d="m0 0h93v79h-9l2-2-3-3 1-6h2l2-5 1-9v-33l-2-7-6-8-6-2h-82l-22-1h-8l-6-1v-1z" fill="#201869"/>
<path transform="translate(744,337)" d="m0 0h111l1 1v42h-6l2-4v-28l-2-7-29-1h-96v-1l5-1z" fill="#231D6C"/>
<path transform="translate(174,153)" d="m0 0h36l36 1v126h-1l-1-83-1-4v-26l-3-9-52-2h-14l-11 2-1 12h-1v-16z" fill="#241D6C"/>
<path transform="translate(9,555)" d="m0 0 2 1 1 49v51l-1 56-1 6h-1l-1-34v-93z" fill="#1F1769"/>
<path transform="translate(686,527)" d="m0 0h10l1 1v39l-1 170-1 3h-8v-1l6-1 1-10v-197l-8-3z" fill="#1F1769"/>
<path transform="translate(967,337)" d="m0 0h95v2l-46 1h-38l-25-1v-1z" fill="#241E6C"/>
<path transform="translate(305,153)" d="m0 0h67l5 1v12l-2-1-1-7-35-2h-30l-10 1v-3z" fill="#231C6B"/>
<path transform="translate(945,170)" d="m0 0h72v8l-2 7h-1l-3-10-13-2-12-1-41-1z" fill="#1F1869"/>
<path transform="translate(1962,63)" d="m0 0 2 2v47l-1 14h-1l-1-12v-49z" fill="#1F1769"/>
<path transform="translate(686,527)" d="m0 0h10l1 1v39l-1 23-2-2v-57l-8-3z" fill="#231D6C"/>
<path transform="translate(174,153)" d="m0 0h36v1l-36 2-11 2-1 12h-1v-16z" fill="#241D6C"/>
<path transform="translate(1690,703)" d="m0 0h1v37h-8v-1l5-1z" fill="#1F1769"/>
<path transform="translate(1104,440)" d="m0 0h28v5h-2v-2l-7-1h-15l-2 5h-1z" fill="#1F1769"/>
<path transform="translate(1555,440)" d="m0 0h20l1 3-1 3-3-1-1-2-16-2z" fill="#201869"/>
<path transform="translate(1783,14)" d="m0 0h15l2 1-1 2h-14l-10-1v-1z" fill="#241E6C"/>
<path transform="translate(1135,14)" d="m0 0 19 1v1l-16 1-4 1z" fill="#211A6A"/>
<path transform="translate(1596,16)" d="m0 0h16v3l-2 2-2-1v-3h-12z" fill="#1F1769"/>
<path transform="translate(693,441)" d="m0 0 3 1 2 6v6h-2l-2-9z" fill="#241E6C"/>
</svg>
